<?xml version="1.0" encoding="utf-8"?>
<!-- Generator: Adobe Illustrator 15.0.0, SVG Export Plug-In . SVG Version: 6.00 Build 0)  -->
<!DOCTYPE svg PUBLIC "-//W3C//DTD SVG 1.1//EN" "http://www.w3.org/Graphics/SVG/1.1/DTD/svg11.dtd">
<svg version="1.1" id="Layer_1" xmlns="http://www.w3.org/2000/svg" xmlns:xlink="http://www.w3.org/1999/xlink" x="0px" y="0px"
	 width="1024px" height="768px" viewBox="0 0 1024 768" enable-background="new 0 0 1024 768" xml:space="preserve">
<g>
	<g>
		<g>
			<g>
				<path fill="#999999" d="M632.124,385.308c-0.049,61.33-4.698,122.824-15.669,183.2c-8.037,44.227-19.365,88.737-38.632,129.522
					c-11.704,24.775-28.304,53.538-54.688,64.953c-22.533,9.749-44.56-1.477-60.219-18.071
					c-24.332-25.787-38.09-61.456-48.791-94.625c-15.706-48.688-24.432-99.61-29.816-150.392
					c-7.083-66.809-7.714-134.37-2.545-201.338c4.092-53.019,11.974-106.056,26.136-157.369
					c10.08-36.522,23.325-74.306,46.221-104.957C467.96,17.707,488.64,0.116,513.36,4.631c26.352,4.812,44.467,31.03,56.611,52.678
					c20.818,37.111,32.692,79.261,41.667,120.6C626.391,245.856,632.068,315.867,632.124,385.308c0.001,1.414,0.026,1.414,0.025,0
					c-0.045-55.815-3.732-111.661-12.468-166.813c-7.321-46.226-18.023-92.615-36.238-135.862
					c-11.436-27.152-27.099-57.89-53.127-73.809c-20.555-12.571-43.115-7.461-60.6,7.768c-25.178,21.929-39.561,55.85-50.601,86.525
					c-16.767,46.59-26.23,95.796-32.46,144.807c-6.939,54.588-9.166,109.75-7.974,164.744
					c1.217,56.155,6.438,112.384,17.132,167.553c8.374,43.191,20,86.749,39.791,126.238c11.856,23.654,28.985,51.314,55.43,60.412
					c23.419,8.058,45.036-5.973,59.915-23.18c23.868-27.604,37.343-64.166,47.848-98.563
					c25.526-83.584,33.281-172.783,33.352-259.819C632.15,383.894,632.125,383.894,632.124,385.308z"/>
			</g>
		</g>
		<g>
			<g>
				<path fill="#999999" d="M504.395,510.886c-58.738,1.477-117.672-1.177-175.859-9.55c-45.482-6.544-91.282-16.428-133.815-34.188
					c-26.163-10.925-56.365-26.358-70.449-52.368c-5.417-10.004-7.046-21.031-3.892-32.012
					c3.339-11.625,11.079-21.562,19.609-29.886c25.616-25,61.255-39.651,94.512-51.19c48.685-16.892,99.756-26.858,150.773-33.448
					c60.585-7.826,121.929-10.323,182.965-8.199c54.504,1.897,109.141,7.699,162.396,19.673
					c38.695,8.701,78.44,20.538,112.247,41.858c19.505,12.302,43.398,33.052,40.491,58.828
					c-2.982,26.447-28.166,45.573-49.105,58.393c-36.047,22.068-77.612,35.163-118.361,45.338
					C646.877,501.369,575.414,508.986,504.395,510.886c-0.041,0.001,0.003,2.5,0,2.5c58.736-1.57,117.454-7.275,175.129-18.653
					c45.081-8.895,90.309-21.139,131.863-41.08c25.562-12.267,54.922-29.244,67.639-55.948c9.114-19.14,4.177-40.191-9.083-55.985
					c-21.017-25.036-54.772-38.855-84.827-49.251c-46.347-16.03-95.295-24.504-143.93-29.777
					c-59.996-6.505-120.63-7.346-180.851-3.888c-56.535,3.246-113.039,10.591-168.154,23.744
					c-41.566,9.919-83.572,23.068-120.694,44.659c-21.873,12.721-47.342,31.411-52.278,58.018c-4.077,21.971,8.144,41,24.273,54.772
					c27.486,23.468,64.133,36.147,98.354,45.871c84.678,24.062,174.938,29.722,262.558,27.52
					C504.435,513.385,504.393,510.886,504.395,510.886z"/>
			</g>
		</g>
		<g>
			<g>
				<path fill="#999999" d="M598.715,305.512c38.54,46.496,73.805,95.855,103.737,148.348
					c23.073,40.464,43.749,83.442,55.258,128.761c7.051,27.762,13.309,64.125-5.417,88.872
					c-15.162,20.039-42.452,20.124-64.789,15.218c-36.813-8.086-70.901-28.624-101.645-49.658
					c-43.521-29.777-83.143-65.226-120.041-102.795c-43.399-44.191-83.098-92.155-118.653-142.862
					c-31.221-44.526-59.439-91.632-81.093-141.59c-8.53-19.679-15.926-39.914-21.289-60.694
					c-4.618-17.892-8.041-36.834-6.617-55.366c1.814-23.615,13.479-45.109,37.768-50.973c28.424-6.863,59.996,5.97,85.114,18.1
					c41.098,19.846,78.331,47.695,112.978,77.142C519.365,216.548,560.692,259.793,598.715,305.512c-0.401-0.483,0.417-1.999,0-2.5
					c-37.368-44.932-77.938-87.316-122.274-125.434c-34.745-29.872-72.178-57.778-113.345-78.205
					c-25.497-12.651-56.831-25.326-85.853-19.394c-24.47,5.001-36.556,26.207-38.93,49.616c-3.214,31.691,5.74,64.121,16.258,93.664
					c17.157,48.19,42.228,93.557,69.729,136.536c33.367,52.148,71.665,101.198,113.26,147.02
					c37.268,41.055,77.622,79.606,121.646,113.378c32.794,25.156,68.427,48.781,107.52,62.906
					c22.982,8.303,52.687,15.037,74.828,0.85c19.988-12.809,23.346-38.328,22.804-60.1c-0.964-38.73-15.526-77.137-31.093-112.078
					c-33.718-75.688-81.835-145.165-134.549-208.76C599.116,303.496,598.298,305.009,598.715,305.512z"/>
			</g>
		</g>
		<g>
			<g>
				<path fill="#999999" d="M611.962,452.702c-31.32,48.598-66.057,95.091-104.941,137.914
					c-30.628,33.73-64.1,65.814-102.062,91.232c-23.83,15.956-53.057,32.488-82.747,31.287c-10.759-0.435-21.106-4.113-29.261-11.22
					c-9.184-8.003-14.322-19.608-17.241-31.202c-4.542-18.038-3.9-37.043-1.831-55.376c2.419-21.433,7.3-42.564,13.209-63.281
					c15.141-53.081,37.905-103.979,63.687-152.676c29.079-54.924,62.922-107.44,100.65-156.815
					c31.705-41.491,66.505-80.988,105.527-115.765c27.887-24.853,59.001-48.979,94.265-62.318
					c21.509-8.137,48.282-12.026,66.85,4.654c23.103,20.755,21.701,59.496,18.447,87.29c-5.519,47.145-21.426,93.103-39.615,136.698
					C673.673,348.792,644.531,401.984,611.962,452.702c-0.384,0.599,0.373,1.919,0,2.5c33.187-51.679,62.668-105.889,86.217-162.652
					c17.989-43.359,33.313-89.07,38.602-135.918c2.938-26.031,3.879-57.088-10.522-80.142
					c-13.072-20.925-37.338-24.398-59.759-19.211c-33.593,7.771-63.873,29.424-90.266,50.665
					c-38.838,31.255-73.138,68.123-104.652,106.63c-38.667,47.246-73.086,98.038-103.496,150.954
					c-28.772,50.065-53.989,102.54-72.604,157.257c-12.811,37.654-23.298,77.588-23.209,117.631
					c0.054,24.166,3.904,53.566,25.933,67.979c21.163,13.847,49.252,5.787,70.418-3.595c36.083-15.992,67.685-42.137,96.308-68.846
					c56.847-53.046,105.004-115.542,147.032-180.752C612.347,454.605,611.588,453.282,611.962,452.702z"/>
			</g>
		</g>
	</g>
	
		<text transform="matrix(1 0 0 1 331.9263 402.1709)" fill="#CCCCCC" stroke="#000000" stroke-width="0.25" stroke-miterlimit="10" font-family="'Tele-Marines'" font-size="113.859">Max</text>
</g>
</svg>
