<svg xmlns="http://www.w3.org/2000/svg" viewBox="0 0 94.31 111.61"><defs><style>.cls-1{fill:#fff;}</style></defs><title>Ресурс 1</title><g id="Слой_2" data-name="Слой 2"><g id="Слой_1-2" data-name="Слой 1"><path d="M94.31,111.61H0v-.5C0,95.25,11.63,82.34,25.92,82.34H68.39c14.29,0,25.92,12.91,25.92,28.78Zm-93.3-1H93.3C93.06,95.53,82,83.34,68.39,83.34H25.92C12.33,83.34,1.24,95.53,1,110.61Z"/><path class="cls-1" d="M39.93,6.45H54.74A17.11,17.11,0,0,1,71.85,23.56v4.78A17.11,17.11,0,0,1,54.74,45.45H37.93A17.11,17.11,0,0,1,20.82,28.34V25.56A19.11,19.11,0,0,1,39.93,6.45Z"/><path d="M54.74,45.95H37.93A17.63,17.63,0,0,1,20.32,28.34V25.56c0-9.26,7.53-19.61,17.61-19.61H54.74c10.08,0,17.61,10.35,17.61,19.61v2.78A17.63,17.63,0,0,1,54.74,45.95Zm-16.81-39c-9.51,0-16.61,9.82-16.61,18.61v2.78A16.63,16.63,0,0,0,37.93,44.95H54.74A16.63,16.63,0,0,0,71.35,28.34V25.56c0-8.78-7.1-18.61-16.61-18.61Z"/><path class="cls-1" d="M46.55,87.93a17.1,17.1,0,0,0,11.78-4.67v4.28a20.35,20.35,0,0,1-24-.52V82.84A17.17,17.17,0,0,0,46.55,87.93Z"/><path d="M46.69,91.7A20.7,20.7,0,0,1,34,87.41l-.2-.15V81.63l.85.86a16.7,16.7,0,0,0,23.3.41l.84-.8v5.7l-.21.15A20.69,20.69,0,0,1,46.69,91.7ZM34.83,86.77a19.85,19.85,0,0,0,23,.51V84.37a17.71,17.71,0,0,1-23-.37Z"/><path class="cls-1" d="M66.82,67.62a24.31,24.31,0,0,1-3,3.54,25.29,25.29,0,0,1-34.39.93,23.88,23.88,0,0,1-3-3.06,20.36,20.36,0,0,1,40.39-1.41Z"/><path d="M46.09,78.88a25.79,25.79,0,0,1-17-6.41,24.35,24.35,0,0,1-3-3.12l-.13-.16,0-.2A21,21,0,0,1,46.71,50a20.76,20.76,0,0,1,20.6,17.58l0,.2-.12.17a24.86,24.86,0,0,1-3.09,3.61A25.74,25.74,0,0,1,46.09,78.88Zm-19.14-10a23.36,23.36,0,0,0,2.78,2.84,24.8,24.8,0,0,0,33.71-.91,23.86,23.86,0,0,0,2.85-3.3A19.76,19.76,0,0,0,46.71,51,20,20,0,0,0,26.95,68.87Z"/><path class="cls-1" d="M34.35,75.49v7.35"/><path d="M34.35,83.34a.5.5,0,0,1-.5-.5V75.49a.5.5,0,0,1,1,0v7.35A.5.5,0,0,1,34.35,83.34Z"/><path class="cls-1" d="M58.35,87.53V83.26a17.2,17.2,0,0,1-24-.42V75.49a25.3,25.3,0,0,0,29.44-4.33,24.31,24.31,0,0,0,3-3.54"/><path d="M46.57,88.43A17.61,17.61,0,0,1,34,83.19L33.85,83V74.66l.73.39A24.8,24.8,0,0,0,63.44,70.8a23.8,23.8,0,0,0,3-3.47.5.5,0,1,1,.82.57,24.86,24.86,0,0,1-3.09,3.61A25.8,25.8,0,0,1,34.85,76.3v6.33A16.7,16.7,0,0,0,58,82.89l.84-.8v5.43a.5.5,0,0,1-1,0V84.37A17.58,17.58,0,0,1,46.57,88.43Z"/><path class="cls-1" d="M63.8,70.7c0,.15,0,.31,0,.46a25.29,25.29,0,0,1-34.39.93c0-.46-.06-.92-.06-1.39a17.23,17.23,0,1,1,34.46,0Z"/><path d="M46.09,78.88a25.79,25.79,0,0,1-17-6.41l-.15-.13,0-.2c0-.47-.06-.95-.06-1.43a17.73,17.73,0,1,1,35.46,0c0,.16,0,.33,0,.49v.19l-.14.13A25.75,25.75,0,0,1,46.09,78.88Zm-16.21-7a24.8,24.8,0,0,0,33.42-.91c0-.08,0-.16,0-.24a16.73,16.73,0,1,0-33.46,0C29.84,71.08,29.86,71.46,29.88,71.84Zm33.91-.69h0Z"/><ellipse class="cls-1" cx="20.69" cy="45.57" rx="4.03" ry="5.13"/><path d="M20.69,51.2c-2.5,0-4.53-2.52-4.53-5.62s2-5.62,4.53-5.62,4.53,2.52,4.53,5.63S23.19,51.2,20.69,51.2Zm0-10.25c-1.95,0-3.53,2.07-3.53,4.63s1.58,4.63,3.53,4.63,3.53-2.07,3.53-4.62S22.64,40.95,20.69,40.95Z"/><ellipse class="cls-1" cx="71.69" cy="45.57" rx="4.03" ry="5.13"/><path d="M71.69,51.2c-2.5,0-4.53-2.52-4.53-5.62s2-5.62,4.53-5.62,4.53,2.52,4.53,5.63S74.19,51.2,71.69,51.2Zm0-10.25c-1.95,0-3.53,2.07-3.53,4.63s1.58,4.63,3.53,4.63,3.53-2.07,3.53-4.62S73.64,40.95,71.69,40.95Z"/><path class="cls-1" d="M71.77,32.07V52.95a25.17,25.17,0,0,1-4.7,14.67,24.31,24.31,0,0,1-3,3.54,25.29,25.29,0,0,1-34.39.93,23.88,23.88,0,0,1-3-3.06A25.24,25.24,0,0,1,20.9,52.95V32.07C20.9,19.19,31.44,12.66,45,12.66h4C61.24,12.66,71.77,19.19,71.77,32.07Z"/><path d="M46.34,78.88a25.79,25.79,0,0,1-17-6.41,24.35,24.35,0,0,1-3-3.12,25.89,25.89,0,0,1-5.89-16.4V32.07c0-12.28,9.45-19.91,24.65-19.91h4c11.53,0,23.17,6.16,23.17,19.91V52.95a25.62,25.62,0,0,1-4.79,15,24.85,24.85,0,0,1-3.09,3.61A25.75,25.75,0,0,1,46.34,78.88ZM45,13.16c-14.59,0-23.65,7.25-23.65,18.91V52.95a24.89,24.89,0,0,0,5.67,15.76,23.41,23.41,0,0,0,2.91,3,24.8,24.8,0,0,0,33.71-.91,23.8,23.8,0,0,0,3-3.47,24.63,24.63,0,0,0,4.61-14.38V32.07C71.27,19,60.13,13.16,49.1,13.16Z"/><path class="cls-1" d="M52.91,37.88c0-2.35,2-2.26,4.45-2.26s4.45-.09,4.45,2.26"/><path d="M61.81,38.38a.5.5,0,0,1-.5-.5,1.63,1.63,0,0,0-.38-1.2c-.56-.56-1.85-.57-3.3-.56h-.53c-1.47,0-2.74,0-3.3.56a1.63,1.63,0,0,0-.38,1.2.5.5,0,0,1-1,0A2.56,2.56,0,0,1,53.08,36c.86-.86,2.32-.86,4-.85h.53c1.7,0,3.15,0,4,.85a2.56,2.56,0,0,1,.67,1.91A.5.5,0,0,1,61.81,38.38Z"/><path class="cls-1" d="M26.31,31.61a15.52,15.52,0,0,1,14.67,0"/><path d="M26.31,32.11a.5.5,0,0,1-.24-.94,16,16,0,0,1,15.14,0,.5.5,0,0,1-.47.88,15,15,0,0,0-14.2,0A.5.5,0,0,1,26.31,32.11Z"/><path class="cls-1" d="M50.31,31.61a15.52,15.52,0,0,1,14.67,0"/><path d="M50.31,32.11a.5.5,0,0,1-.24-.94,16,16,0,0,1,15.14,0,.5.5,0,0,1-.47.88,15,15,0,0,0-14.2,0A.5.5,0,0,1,50.31,32.11Z"/><path class="cls-1" d="M46.09,38.28v9.33c-2.63-.23-4.56,1.86-4.42,3.64s2,3.3,4.42,3"/><path d="M45.58,54.81a4.77,4.77,0,0,1-3-1.06,3.64,3.64,0,0,1-1.38-2.45,3.72,3.72,0,0,1,1.18-2.85,4.72,4.72,0,0,1,3.24-1.35V38.28a.5.5,0,0,1,1,0v9.88l-.54,0a3.76,3.76,0,0,0-3,1,2.72,2.72,0,0,0-.89,2.06,2.64,2.64,0,0,0,1,1.76,3.8,3.8,0,0,0,2.84.81.5.5,0,0,1,.11,1A4.86,4.86,0,0,1,45.58,54.81Z"/><rect x="55.52" y="35.16" width="3.67" height="5.72" rx="1.84" ry="1.84"/><path class="cls-1" d="M29.91,37.88c0-2.35,2-2.26,4.45-2.26s4.45-.09,4.45,2.26"/><path d="M38.81,38.38a.5.5,0,0,1-.5-.5,1.63,1.63,0,0,0-.38-1.2c-.56-.56-1.84-.57-3.3-.56h-.53c-1.47,0-2.74,0-3.3.56a1.63,1.63,0,0,0-.38,1.2.5.5,0,0,1-1,0A2.56,2.56,0,0,1,30.08,36c.86-.86,2.32-.86,4-.85h.53c1.7,0,3.15,0,4,.85a2.56,2.56,0,0,1,.67,1.91A.5.5,0,0,1,38.81,38.38Z"/><rect x="32.52" y="35.16" width="3.67" height="5.72" rx="1.84" ry="1.84"/><path class="cls-1" d="M40.81,64.53a18.47,18.47,0,0,0,14.1-4.33"/><path d="M42.86,65.15A18.94,18.94,0,0,1,40.75,65a.5.5,0,1,1,.11-1,18.15,18.15,0,0,0,7.46-.73,17.9,17.9,0,0,0,6.26-3.49.5.5,0,0,1,.65.76,18.89,18.89,0,0,1-6.61,3.68A19.13,19.13,0,0,1,42.86,65.15Z"/><path class="cls-1" d="M51.31,68.36a3.5,3.5,0,0,0-2.58.33,3.56,3.56,0,0,0-1.67,2.42"/><path d="M47.06,71.61H47a.5.5,0,0,1-.41-.58,4.08,4.08,0,0,1,1.91-2.77,4,4,0,0,1,3-.38.5.5,0,0,1-.25,1,2.9,2.9,0,0,0-3.63,2.35A.5.5,0,0,1,47.06,71.61Z"/><path class="cls-1" d="M31.36,11.45A30.86,30.86,0,0,1,34,5.21C35.41,2.54,37.4,1.67,38.81.55c2.84.83,6.16,1,9.67,2.7a65.43,65.43,0,0,1,12.33,8"/><path d="M31.36,11.95h-.08a.5.5,0,0,1-.41-.58A31.28,31.28,0,0,1,33.53,5,11.15,11.15,0,0,1,37.47.9c.36-.25.71-.49,1-.74L38.7,0l.25.07c.94.28,1.94.48,3,.7a27.57,27.57,0,0,1,6.75,2,66,66,0,0,1,12.44,8.06.5.5,0,1,1-.64.77A65.3,65.3,0,0,0,48.25,3.71a26.4,26.4,0,0,0-6.51-2c-1-.2-1.92-.39-2.83-.65-.28.21-.57.41-.87.62a10.16,10.16,0,0,0-3.62,3.72,30.76,30.76,0,0,0-2.56,6.08A.5.5,0,0,1,31.36,11.95Z"/><path class="cls-1" d="M38.81.55c0,.49-2.13,2.9-.33,4.89a6.65,6.65,0,0,0,3.41,2"/><path d="M41.76,7.93A7.2,7.2,0,0,1,38.1,5.78C36.47,4,37.57,1.89,38.11.9a4.06,4.06,0,0,0,.21-.42l1,.1a2.09,2.09,0,0,1-.32.78c-.63,1.19-1.22,2.55-.14,3.75A6.19,6.19,0,0,0,42,7Z"/><path d="M58.35,88a.5.5,0,0,1-.5-.5h0a.5.5,0,1,1,.5.5Z"/><path d="M58.35,83.76a.5.5,0,0,1-.5-.5V75.49a.5.5,0,0,1,1,0v7.77A.5.5,0,0,1,58.35,83.76Z"/><path d="M24.72,111.39a.5.5,0,0,1-.5-.5v-4.78a.5.5,0,1,1,1,0v4.78A.5.5,0,0,1,24.72,111.39Z"/><path d="M65.72,111.39a.5.5,0,0,1-.5-.5v-4.78a.5.5,0,0,1,1,0v4.78A.5.5,0,0,1,65.72,111.39Z"/></g></g></svg>